<?xml version="1.0" encoding="UTF-8" standalone="no"?>
<svg width="195px" height="30px" viewBox="0 0 195 30" version="1.1" xmlns="http://www.w3.org/2000/svg" xmlns:xlink="http://www.w3.org/1999/xlink" xmlns:sketch="http://www.bohemiancoding.com/sketch/ns">
    <!-- Generator: Sketch 3.3.3 (12081) - http://www.bohemiancoding.com/sketch -->
    <title>new_logo</title>
    <desc>Created with Sketch.</desc>
    <defs></defs>
    <g id="Page-1" stroke="none" stroke-width="1" fill="none" fill-rule="evenodd" sketch:type="MSPage">
        <g id="Artboard-1" sketch:type="MSArtboardGroup" transform="translate(-328.000000, -278.000000)">
            <g id="new_logo" sketch:type="MSLayerGroup" transform="translate(328.000000, 278.000000)">
                <path d="M5.50011361,20.4444444 L5.50011361,22.4844444 C5.50011361,23.2844484 6.00781133,23.9711082 7.023222,24.5444444 C8.03863266,25.1177806 9.66860955,25.4044444 11.9132015,25.4044444 L16.5226085,25.4044444 C17.1371992,25.4044444 17.5313329,25.5711094 17.7050216,25.9044444 C17.8787103,26.2377794 17.9655533,26.7377744 17.9655533,27.4044444 C17.9655533,28.0711144 17.8787103,28.577776 17.7050216,28.9244444 C17.5313329,29.2711128 17.1371992,29.4444444 16.5226085,29.4444444 L11.7528743,29.4444444 C4.19073701,29.4444444 0.409725062,27.1244676 0.409725062,22.4844444 L0.409725062,13.8044444 C0.409725062,9.16442124 4.19073701,6.84444444 11.7528743,6.84444444 L21.0117701,6.84444444 C25.0199701,6.84444444 27.912511,7.41777204 29.6894797,8.56444444 C31.4664483,9.71111684 32.3549193,11.457766 32.3549193,13.8044444 L32.3549193,18.4044444 C32.3549193,19.1777816 32.2079542,19.7111096 31.9140195,20.0044444 C31.6200849,20.2977792 30.965422,20.4444444 29.9500114,20.4444444 L5.50011361,20.4444444 Z M5.50011361,16.4844444 L27.2645308,16.4844444 L27.2645308,13.8044444 C27.2645308,12.8711064 26.7635133,12.1511136 25.7614633,11.6444444 C24.7594133,11.1377752 23.1227562,10.8844444 20.8514429,10.8844444 L11.9132015,10.8844444 C9.66860955,10.8844444 8.03863266,11.1644416 7.023222,11.7244444 C6.00781133,12.2844472 5.50011361,12.9777736 5.50011361,13.8044444 L5.50011361,16.4844444 Z M49.630175,15.4444444 L60.0113611,7.24444444 C60.3052957,7.03111004 60.6259469,6.88444484 60.9733242,6.80444444 C61.3207016,6.72444404 61.9219226,6.68444444 62.7770052,6.68444444 C63.6053666,6.68444444 64.2800701,6.75777704 64.8011361,6.90444444 C65.3222021,7.05111184 65.5827312,7.41777484 65.5827312,8.00444444 C65.5827312,8.27111244 65.5025684,8.49777684 65.3422404,8.68444444 C65.1819124,8.87111204 64.8746217,9.15110924 64.420359,9.52444444 L53.2375369,18.2044444 L64.5406044,26.7644444 C64.9948671,27.1377796 65.3021578,27.4177768 65.4624858,27.6044444 C65.6228138,27.791112 65.7029766,28.0311096 65.7029766,28.3244444 C65.7029766,28.8844472 65.4691684,29.237777 65.0015451,29.3844444 C64.5339218,29.5311118 63.8592182,29.6044444 62.9774142,29.6044444 C62.2024956,29.6044444 61.6279955,29.5644448 61.2538968,29.4844444 C60.8797982,29.404444 60.5457865,29.2577788 60.2518519,29.0444444 L49.429766,20.6844444 L38.8080891,29.0444444 C38.4874331,29.2844456 38.1400609,29.4377774 37.7659623,29.5044444 C37.3918636,29.5711114 36.857445,29.6044444 36.1626903,29.6044444 C35.2808863,29.6044444 34.5794618,29.5377784 34.0583958,29.4044444 C33.5373298,29.2711104 33.2768007,28.8977808 33.2768007,28.2844444 C33.2768007,28.0177764 33.3502833,27.791112 33.4972506,27.6044444 C33.644218,27.4177768 33.9448284,27.1377796 34.3990911,26.7644444 L45.822404,17.9244444 L34.7598273,9.52444444 C34.3055646,9.15110924 34.0049542,8.85777884 33.8579868,8.64444444 C33.7110195,8.43111004 33.6375369,8.20444564 33.6375369,7.96444444 C33.6375369,7.43110844 33.8713451,7.08444524 34.3389684,6.92444444 C34.8065917,6.76444364 35.5080162,6.68444444 36.4432629,6.68444444 C37.1647389,6.68444444 37.7058378,6.72444404 38.0665758,6.80444444 C38.4273138,6.88444484 38.7546452,7.03111004 39.0485799,7.24444444 L49.630175,15.4444444 Z M70.7532833,6.84444444 L70.7532833,2.16444444 C70.7532833,1.39110724 70.9603706,0.884445644 71.3745512,0.644444444 C71.7887319,0.404443244 72.4233541,0.284444444 73.2784367,0.284444444 C74.1335194,0.284444444 74.7748218,0.404443244 75.2023631,0.644444444 C75.6299044,0.884445644 75.8436719,1.39110724 75.8436719,2.16444444 L75.8436719,6.84444444 L84.3009316,6.84444444 C84.9155223,6.84444444 85.309656,7.01777604 85.4833447,7.36444444 C85.6570334,7.71111284 85.7438764,8.21777444 85.7438764,8.88444444 C85.7438764,9.55111444 85.6570334,10.0511094 85.4833447,10.3844444 C85.309656,10.7177794 84.9155223,10.8844444 84.3009316,10.8844444 L75.8436719,10.8844444 L75.8436719,27.7244444 C75.8436719,28.4977816 75.6299044,29.0044432 75.2023631,29.2444444 C74.7748218,29.4844456 74.1335194,29.6044444 73.2784367,29.6044444 C72.4233541,29.6044444 71.7887319,29.4844456 71.3745512,29.2444444 C70.9603706,29.0044432 70.7532833,28.4977816 70.7532833,27.7244444 L70.7532833,10.8844444 L68.4686208,10.8844444 C67.8540301,10.8844444 67.4598963,10.7177794 67.2862077,10.3844444 C67.112519,10.0511094 67.025676,9.55111444 67.025676,8.88444444 C67.025676,8.21777444 67.112519,7.71111284 67.2862077,7.36444444 C67.4598963,7.01777604 67.8540301,6.84444444 68.4686208,6.84444444 L70.7532833,6.84444444 Z M100.774551,6.84444444 C101.389142,6.84444444 101.783276,7.01777604 101.956964,7.36444444 C102.130653,7.71111284 102.217496,8.21777444 102.217496,8.88444444 C102.217496,9.55111444 102.130653,10.0511094 101.956964,10.3844444 C101.783276,10.7177794 101.389142,10.8844444 100.774551,10.8844444 L97.6481709,10.8844444 C95.6707922,10.8844444 94.2946642,11.1377752 93.5197455,11.6444444 C92.7448268,12.1511136 92.3573733,12.8577732 92.3573733,13.7644444 L92.3573733,27.7244444 C92.3573733,28.4977816 92.1436059,29.0044432 91.7160645,29.2444444 C91.2885232,29.4844456 90.6472208,29.6044444 89.7921382,29.6044444 C88.9370555,29.6044444 88.3024333,29.4844456 87.8882527,29.2444444 C87.474072,29.0044432 87.2669848,28.4977816 87.2669848,27.7244444 L87.2669848,13.7644444 C87.2669848,11.4444328 88.1554558,9.71111684 89.9324244,8.56444444 C91.7093931,7.41777204 94.2812829,6.84444444 97.6481709,6.84444444 L100.774551,6.84444444 Z M110.113611,29.4444444 C102.551473,29.4444444 98.7704613,27.1244676 98.7704613,22.4844444 L98.7704613,20.3644444 C98.7704613,15.7244212 102.551473,13.4044444 110.113611,13.4044444 L127.268621,13.4044444 L127.268621,13.3644444 C127.268621,12.5911072 126.767603,11.9844466 125.765553,11.5444444 C124.763503,11.1044422 123.126846,10.8844444 120.855533,10.8844444 L117.087844,10.8844444 C116.473253,10.8844444 116.072439,10.7177794 115.88539,10.3844444 C115.69834,10.0511094 115.604817,9.55111444 115.604817,8.88444444 C115.604817,8.19110764 115.69834,7.67777944 115.88539,7.34444444 C116.072439,7.01110944 116.473253,6.84444444 117.087844,6.84444444 L121.01586,6.84444444 C128.577997,6.84444444 132.359009,9.16442124 132.359009,13.8044444 L132.359009,22.4844444 C132.359009,27.1244676 128.577997,29.4444444 121.01586,29.4444444 L110.113611,29.4444444 Z M120.855533,25.4044444 C123.100125,25.4044444 124.730102,25.1177806 125.745512,24.5444444 C126.760923,23.9711082 127.268621,23.2844484 127.268621,22.4844444 L127.268621,17.2844444 L110.273938,17.2844444 C108.029346,17.2844444 106.399369,17.5644416 105.383958,18.1244444 C104.368548,18.6844472 103.86085,19.3777736 103.86085,20.2044444 L103.86085,22.4844444 C103.86085,23.2844484 104.368548,23.9711082 105.383958,24.5444444 C106.399369,25.1177806 108.029346,25.4044444 110.273938,25.4044444 L120.855533,25.4044444 Z" id="extra" fill="#828282" sketch:type="MSShapeGroup"></path>
                <path d="M140.847444,20.4444444 L140.847444,22.4844444 C140.847444,23.2844484 141.355141,23.9711082 142.370552,24.5444444 C143.385963,25.1177806 145.01594,25.4044444 147.260532,25.4044444 L151.869939,25.4044444 C152.484529,25.4044444 152.878663,25.5711094 153.052352,25.9044444 C153.22604,26.2377794 153.312883,26.7377744 153.312883,27.4044444 C153.312883,28.0711144 153.22604,28.577776 153.052352,28.9244444 C152.878663,29.2711128 152.484529,29.4444444 151.869939,29.4444444 L147.100204,29.4444444 C139.538067,29.4444444 135.757055,27.1244676 135.757055,22.4844444 L135.757055,13.8044444 C135.757055,9.16442124 139.538067,6.84444444 147.100204,6.84444444 L156.3591,6.84444444 C160.3673,6.84444444 163.259841,7.41777204 165.03681,8.56444444 C166.813778,9.71111684 167.702249,11.457766 167.702249,13.8044444 L167.702249,18.4044444 C167.702249,19.1777816 167.555284,19.7111096 167.26135,20.0044444 C166.967415,20.2977792 166.312752,20.4444444 165.297342,20.4444444 L140.847444,20.4444444 Z M140.847444,16.4844444 L162.611861,16.4844444 L162.611861,13.8044444 C162.611861,12.8711064 162.110843,12.1511136 161.108793,11.6444444 C160.106743,11.1377752 158.470086,10.8844444 156.198773,10.8844444 L147.260532,10.8844444 C145.01594,10.8844444 143.385963,11.1644416 142.370552,11.7244444 C141.355141,12.2844472 140.847444,12.9777736 140.847444,13.8044444 L140.847444,16.4844444 Z M183.895297,0.444444444 C184.509887,0.444444444 184.904021,0.617776044 185.07771,0.964444444 C185.251398,1.31111284 185.338241,1.81777444 185.338241,2.48444444 C185.338241,3.15111444 185.251398,3.65110944 185.07771,3.98444444 C184.904021,4.31777944 184.509887,4.48444444 183.895297,4.48444444 L181.009407,4.48444444 C179.192356,4.48444444 177.896391,4.68444244 177.121472,5.08444444 C176.346554,5.48444644 175.892298,6.07110724 175.758691,6.84444444 L183.895297,6.84444444 C184.509887,6.84444444 184.904021,7.01777604 185.07771,7.36444444 C185.251398,7.71111284 185.338241,8.21777444 185.338241,8.88444444 C185.338241,9.55111444 185.251398,10.0511094 185.07771,10.3844444 C184.904021,10.7177794 184.509887,10.8844444 183.895297,10.8844444 L175.718609,10.8844444 L175.718609,27.7244444 C175.718609,28.4977816 175.504842,29.0044432 175.077301,29.2444444 C174.649759,29.4844456 174.008457,29.6044444 173.153374,29.6044444 C172.298292,29.6044444 171.663669,29.4844456 171.249489,29.2444444 C170.835308,29.0044432 170.628221,28.4977816 170.628221,27.7244444 L170.628221,7.36444444 C170.628221,5.04443284 171.516692,3.31111684 173.293661,2.16444444 C175.070629,1.01777204 177.642519,0.444444444 181.009407,0.444444444 L183.895297,0.444444444 Z M193.514928,27.7244444 C193.514928,28.4977816 193.301161,29.0044432 192.87362,29.2444444 C192.446078,29.4844456 191.804776,29.6044444 190.949693,29.6044444 C190.094611,29.6044444 189.459988,29.4844456 189.045808,29.2444444 C188.631627,29.0044432 188.42454,28.4977816 188.42454,27.7244444 L188.42454,8.84444444 C188.42454,8.07110724 188.631627,7.56444564 189.045808,7.32444444 C189.459988,7.08444324 190.094611,6.96444444 190.949693,6.96444444 C191.804776,6.96444444 192.446078,7.08444324 192.87362,7.32444444 C193.301161,7.56444564 193.514928,8.07110724 193.514928,8.84444444 L193.514928,27.7244444 Z M187.783231,2.76444444 C187.783231,1.91110684 188.0304,1.28444644 188.524744,0.884444444 C189.019089,0.484442444 189.827397,0.284444444 190.949693,0.284444444 C192.071989,0.284444444 192.880297,0.484442444 193.374642,0.884444444 C193.868987,1.28444644 194.116155,1.91110684 194.116155,2.76444444 C194.116155,3.61778204 193.868987,4.24444244 193.374642,4.64444444 C192.880297,5.04444644 192.071989,5.24444444 190.949693,5.24444444 C189.827397,5.24444444 189.019089,5.04444644 188.524744,4.64444444 C188.0304,4.24444244 187.783231,3.61778204 187.783231,2.76444444 L187.783231,2.76444444 Z" id="efi" fill="#FFFFFF" sketch:type="MSShapeGroup"></path>
            </g>
        </g>
    </g>
</svg>